<svg xmlns="http://www.w3.org/2000/svg" xmlns:xlink="http://www.w3.org/1999/xlink" version="1.2" width="105.00mm" height="148.00mm" viewBox="0.0000 -0.0000 5.9751 8.4220">
<style type="text/css">
<![CDATA[
tspan { white-space: pre; }
]]>
</style>
<g transform="translate(0.4552, 6.8831)">
<rect x="0.4717" y="-0.0704" width="1.7823" height="0.1409" ry="0.0704" fill="currentColor"/>
</g>
<g transform="translate(0.4552, 5.8831)">
<line stroke-linejoin="round" stroke-linecap="round" stroke-width="0.0409" stroke="currentColor" x1="0.0204" y1="0" x2="5.0442" y2="0"/>
</g>
<g transform="translate(0.4552, 4.8831)">
<line stroke-linejoin="round" stroke-linecap="round" stroke-width="0.0409" stroke="currentColor" x1="0.0204" y1="0" x2="5.0442" y2="0"/>
</g>
<g transform="translate(0.4552, 3.8831)">
<line stroke-linejoin="round" stroke-linecap="round" stroke-width="0.0409" stroke="currentColor" x1="0.0204" y1="0" x2="5.0442" y2="0"/>
</g>
<g transform="translate(0.4552, 2.8831)">
<line stroke-linejoin="round" stroke-linecap="round" stroke-width="0.0409" stroke="currentColor" x1="0.0204" y1="0" x2="5.0442" y2="0"/>
</g>
<g transform="translate(0.4552, 1.8831)">
<line stroke-linejoin="round" stroke-linecap="round" stroke-width="0.0409" stroke="currentColor" x1="0.0204" y1="0" x2="5.0442" y2="0"/>
</g>
<g transform="translate(2.5062, 3.8831)">
<polygon stroke-linejoin="round" stroke-linecap="round" stroke-width="0.0080" fill="currentColor" stroke="currentColor" points="1.6550 -0.4556 1.6550 0.0164 0.0040 0.2360 0.0040 -0.2360"/>
</g>
<g transform="translate(1.2534, 6.8831)">
<path transform="scale(0.0040, -0.0040)" d="M0 -49c0 91 119 184 221 184c61 0 106 -34 106 -86c0 -87 -114 -184 -224 -184c-65 0 -103 37 -103 86z" fill="currentColor"/>
</g>
<g transform="translate(2.5327, 3.8831)">
<rect x="-0.0266" y="-0.0035" width="0.0531" height="2.8068" ry="0.0040" fill="currentColor"/>
</g>
<g transform="translate(2.8593, 6.3831)">
<path transform="scale(0.0040, -0.0040)" d="M0 -49c0 91 119 184 221 184c61 0 106 -34 106 -86c0 -87 -114 -184 -224 -184c-65 0 -103 37 -103 86z" fill="currentColor"/>
</g>
<g transform="translate(4.1386, 3.8831)">
<rect x="-0.0266" y="-0.2161" width="0.0531" height="2.5194" ry="0.0040" fill="currentColor"/>
</g>
</svg>
