<svg xmlns="http://www.w3.org/2000/svg" version="1.2" width="157.50mm" height="222.00mm" viewBox="0.0000 -0.0000 8.9627 12.6330">
<style type="text/css">

tspan { white-space: pre; }

</style>
<g transform="translate(0.2845, 6.0204)">
<rect x="-0.3265" y="-0.0704" width="1.9587" height="0.1409" ry="0.0704" fill="currentColor" />
</g>
<g transform="translate(0.2845, 5.0204)">
<line stroke-linejoin="round" stroke-linecap="round" stroke-width="0.0409" stroke="currentColor" x1="0.0204" y1="0" x2="6.1028" y2="0" />
</g>
<g transform="translate(0.2845, 4.0204)">
<line stroke-linejoin="round" stroke-linecap="round" stroke-width="0.0409" stroke="currentColor" x1="0.0204" y1="0" x2="6.1028" y2="0" />
</g>
<g transform="translate(0.2845, 3.0204)">
<line stroke-linejoin="round" stroke-linecap="round" stroke-width="0.0409" stroke="currentColor" x1="0.0204" y1="0" x2="6.1028" y2="0" />
</g>
<g transform="translate(0.2845, 2.0204)">
<line stroke-linejoin="round" stroke-linecap="round" stroke-width="0.0409" stroke="currentColor" x1="0.0204" y1="0" x2="6.1028" y2="0" />
</g>
<g transform="translate(0.2845, 1.0204)">
<line stroke-linejoin="round" stroke-linecap="round" stroke-width="0.0409" stroke="currentColor" x1="0.0204" y1="0" x2="6.1028" y2="0" />
</g>
<g transform="translate(1.5372, 2.0204)">
<polygon stroke-linejoin="round" stroke-linecap="round" stroke-width="0.0080" fill="currentColor" stroke="currentColor" points="4.8665 -0.7360 4.8665 -0.2640 0.0040 0.2360 0.0040 -0.2360" />
</g>
<g transform="translate(1.5372, 2.8009)">
<polygon stroke-linejoin="round" stroke-linecap="round" stroke-width="0.0080" fill="currentColor" stroke="currentColor" points="4.8665 -0.7360 4.8665 -0.2640 0.0040 0.2360 0.0040 -0.2360" />
</g>
<g transform="translate(0.2845, 6.0204)">
<path transform="scale(0.0040, -0.0040)" d="M222 135c64 0 104 -35 104 -86c0 -89 -114 -184 -221 -184c-64 0 -105 35 -105 86c0 89 115 184 222 184z" fill="currentColor" />
</g>
<g transform="translate(1.5638, 3.0204)">
<rect x="-0.0266" y="-1.0027" width="0.0531" height="3.8060" ry="0.0040" fill="currentColor" />
</g>
<g transform="translate(1.8903, 5.0204)">
<path transform="scale(0.0040, -0.0040)" d="M222 135c64 0 104 -35 104 -86c0 -89 -114 -184 -221 -184c-64 0 -105 35 -105 86c0 89 115 184 222 184z" fill="currentColor" />
</g>
<g transform="translate(3.1696, 3.0204)">
<rect x="-0.0266" y="-1.1676" width="0.0531" height="2.9708" ry="0.0040" fill="currentColor" />
</g>
<g transform="translate(3.4961, 4.0204)">
<path transform="scale(0.0040, -0.0040)" d="M222 135c64 0 104 -35 104 -86c0 -89 -114 -184 -221 -184c-64 0 -105 35 -105 86c0 89 115 184 222 184z" fill="currentColor" />
</g>
<g transform="translate(4.7754, 3.0204)">
<rect x="-0.0266" y="-1.3324" width="0.0531" height="2.1357" ry="0.0040" fill="currentColor" />
</g>
<g transform="translate(5.1019, 5.0204)">
<path transform="scale(0.0040, -0.0040)" d="M222 135c64 0 104 -35 104 -86c0 -89 -114 -184 -221 -184c-64 0 -105 35 -105 86c0 89 115 184 222 184z" fill="currentColor" />
</g>
<g transform="translate(6.3812, 3.0204)">
<rect x="-0.0266" y="-1.4973" width="0.0531" height="3.3005" ry="0.0040" fill="currentColor" />
</g>
</svg>