<svg xmlns="http://www.w3.org/2000/svg" version="1.2" width="157.50mm" height="222.00mm" viewBox="0.0000 -0.0000 8.9627 12.6330">
<style type="text/css">

tspan { white-space: pre; }

</style>
<style type="text/css">

tspan { white-space: pre; }

</style>
<g transform="translate(0,-1.4279)"><g transform="translate(0.2845, 6.4483)">
<line stroke-linejoin="round" stroke-linecap="round" stroke-width="0.0409" stroke="currentColor" x1="0.0204" y1="0" x2="5.3856" y2="0" />
</g>
<g transform="translate(0.2845, 5.4483)">
<line stroke-linejoin="round" stroke-linecap="round" stroke-width="0.0409" stroke="currentColor" x1="0.0204" y1="0" x2="5.3856" y2="0" />
</g>
<g transform="translate(0.2845, 4.4483)">
<line stroke-linejoin="round" stroke-linecap="round" stroke-width="0.0409" stroke="currentColor" x1="0.0204" y1="0" x2="5.3856" y2="0" />
</g>
<g transform="translate(0.2845, 3.4483)">
<line stroke-linejoin="round" stroke-linecap="round" stroke-width="0.0409" stroke="currentColor" x1="0.0204" y1="0" x2="5.3856" y2="0" />
</g>
<g transform="translate(0.2845, 2.4483)">
<line stroke-linejoin="round" stroke-linecap="round" stroke-width="0.0409" stroke="currentColor" x1="0.0204" y1="0" x2="5.3856" y2="0" />
</g>
<g transform="translate(1.9571, 3.4483)">
<polygon stroke-linejoin="round" stroke-linecap="round" stroke-width="0.0080" fill="currentColor" stroke="currentColor" points="3.2607 -1.2360 3.2607 -0.7640 0.0040 0.2360 0.0040 -0.2360" />
</g>
<g transform="translate(3.1524, 2.1801)">
<text font-family="serif" font-style="italic" font-size="1.7463" text-anchor="start" fill="currentColor">
<tspan>3</tspan>
</text>
</g>
<g transform="translate(0.7044, 6.9483)">
<path transform="scale(0.0040, -0.0040)" d="M222 135c64 0 104 -35 104 -86c0 -89 -114 -184 -221 -184c-64 0 -105 35 -105 86c0 89 115 184 222 184z" fill="currentColor" />
</g>
<g transform="translate(1.9837, 4.4483)">
<rect x="-0.0266" y="-1.0081" width="0.0531" height="3.3114" ry="0.0040" fill="currentColor" />
</g>
<g transform="translate(2.3102, 5.9483)">
<path transform="scale(0.0040, -0.0040)" d="M222 135c64 0 104 -35 104 -86c0 -89 -114 -184 -221 -184c-64 0 -105 35 -105 86c0 89 115 184 222 184z" fill="currentColor" />
</g>
<g transform="translate(3.5895, 4.4483)">
<rect x="-0.0266" y="-1.5000" width="0.0531" height="2.8033" ry="0.0040" fill="currentColor" />
</g>
<g transform="translate(3.9160, 4.9483)">
<path transform="scale(0.0040, -0.0040)" d="M222 135c64 0 104 -35 104 -86c0 -89 -114 -184 -221 -184c-64 0 -105 35 -105 86c0 89 115 184 222 184z" fill="currentColor" />
</g>
<g transform="translate(5.1953, 4.4483)">
<rect x="-0.0266" y="-1.9919" width="0.0531" height="2.2951" ry="0.0040" fill="currentColor" />
</g>
</g></svg>