<svg xmlns="http://www.w3.org/2000/svg" version="1.2" width="157.50mm" height="222.00mm" viewBox="0.0000 -0.0000 8.9627 12.6330">
<style type="text/css">

tspan { white-space: pre; }

</style>
<g transform="translate(0.2845, 5.0204)">
<line stroke-linejoin="round" stroke-linecap="round" stroke-width="0.0409" stroke="currentColor" x1="0.0204" y1="0" x2="5.3856" y2="0" />
</g>
<g transform="translate(0.2845, 4.0204)">
<line stroke-linejoin="round" stroke-linecap="round" stroke-width="0.0409" stroke="currentColor" x1="0.0204" y1="0" x2="5.3856" y2="0" />
</g>
<g transform="translate(0.2845, 3.0204)">
<line stroke-linejoin="round" stroke-linecap="round" stroke-width="0.0409" stroke="currentColor" x1="0.0204" y1="0" x2="5.3856" y2="0" />
</g>
<g transform="translate(0.2845, 2.0204)">
<line stroke-linejoin="round" stroke-linecap="round" stroke-width="0.0409" stroke="currentColor" x1="0.0204" y1="0" x2="5.3856" y2="0" />
</g>
<g transform="translate(0.2845, 1.0204)">
<line stroke-linejoin="round" stroke-linecap="round" stroke-width="0.0409" stroke="currentColor" x1="0.0204" y1="0" x2="5.3856" y2="0" />
</g>
<g transform="translate(1.6360, 4.5204)">
<path transform="scale(0.0040, -0.0040)" d="M222 135c64 0 104 -35 104 -86c0 -89 -114 -184 -221 -184c-64 0 -105 35 -105 86c0 89 115 184 222 184z" fill="currentColor" />
</g>
<g transform="translate(2.9153, 3.0204)">
<rect x="-0.0266" y="-2.0000" width="0.0531" height="3.3033" ry="0.0040" fill="currentColor" />
</g>
</svg>