<svg xmlns="http://www.w3.org/2000/svg" version="1.2" width="157.50mm" height="222.00mm" viewBox="0.0000 -0.0000 8.9627 12.6330">
<style type="text/css">

tspan { white-space: pre; }

</style>
<style type="text/css">

tspan { white-space: pre; }

</style>
<g transform="translate(0,-0.4392)"><g transform="translate(0.2845, 5.4596)">
<line stroke-linejoin="round" stroke-linecap="round" stroke-width="0.0409" stroke="currentColor" x1="0.0204" y1="0" x2="5.3856" y2="0" />
</g>
<g transform="translate(0.2845, 4.4596)">
<line stroke-linejoin="round" stroke-linecap="round" stroke-width="0.0409" stroke="currentColor" x1="0.0204" y1="0" x2="5.3856" y2="0" />
</g>
<g transform="translate(0.2845, 3.4596)">
<line stroke-linejoin="round" stroke-linecap="round" stroke-width="0.0409" stroke="currentColor" x1="0.0204" y1="0" x2="5.3856" y2="0" />
</g>
<g transform="translate(0.2845, 2.4596)">
<line stroke-linejoin="round" stroke-linecap="round" stroke-width="0.0409" stroke="currentColor" x1="0.0204" y1="0" x2="5.3856" y2="0" />
</g>
<g transform="translate(0.2845, 1.4596)">
<line stroke-linejoin="round" stroke-linecap="round" stroke-width="0.0409" stroke="currentColor" x1="0.0204" y1="0" x2="5.3856" y2="0" />
</g>
<g transform="translate(2.3373, 1.4596)">
<polygon stroke-linejoin="round" stroke-linecap="round" stroke-width="0.0080" fill="currentColor" stroke="currentColor" points="1.6549 -0.4556 1.6549 0.0164 0.0040 0.2360 0.0040 -0.2360" />
</g>
<g transform="translate(1.0846, 4.4596)">
<path transform="scale(0.0040, -0.0040)" d="M222 135c64 0 104 -35 104 -86c0 -89 -114 -184 -221 -184c-64 0 -105 35 -105 86c0 89 115 184 222 184z" fill="currentColor" />
</g>
<g transform="translate(2.3638, 3.4596)">
<rect x="-0.0266" y="-2.0035" width="0.0531" height="2.8068" ry="0.0040" fill="currentColor" />
</g>
<g transform="translate(2.6904, 3.9596)">
<path transform="scale(0.0040, -0.0040)" d="M222 135c64 0 104 -35 104 -86c0 -89 -114 -184 -221 -184c-64 0 -105 35 -105 86c0 89 115 184 222 184z" fill="currentColor" />
</g>
<g transform="translate(3.9696, 3.4596)">
<rect x="-0.0266" y="-2.2161" width="0.0531" height="2.5193" ry="0.0040" fill="currentColor" />
</g>
</g></svg>