<svg xmlns="http://www.w3.org/2000/svg" version="1.2" width="157.50mm" height="222.00mm" viewBox="0.0000 -0.0000 8.9627 12.6330">
<style type="text/css">

tspan { white-space: pre; }

</style>
<style type="text/css">

tspan { white-space: pre; }

</style>
<g transform="translate(0,-0.1373)"><g transform="translate(0.4552, 7.0204)">
<rect x="-0.3265" y="-0.0704" width="1.9588" height="0.1409" ry="0.0704" fill="currentColor" />
</g>
<g transform="translate(0.4552, 6.0204)">
<line stroke-linejoin="round" stroke-linecap="round" stroke-width="0.0409" stroke="currentColor" x1="0.0204" y1="0" x2="6.1031" y2="0" />
</g>
<g transform="translate(0.4552, 5.0204)">
<line stroke-linejoin="round" stroke-linecap="round" stroke-width="0.0409" stroke="currentColor" x1="0.0204" y1="0" x2="6.1031" y2="0" />
</g>
<g transform="translate(0.4552, 4.0204)">
<line stroke-linejoin="round" stroke-linecap="round" stroke-width="0.0409" stroke="currentColor" x1="0.0204" y1="0" x2="6.1031" y2="0" />
</g>
<g transform="translate(0.4552, 3.0204)">
<line stroke-linejoin="round" stroke-linecap="round" stroke-width="0.0409" stroke="currentColor" x1="0.0204" y1="0" x2="6.1031" y2="0" />
</g>
<g transform="translate(0.4552, 2.0204)">
<line stroke-linejoin="round" stroke-linecap="round" stroke-width="0.0409" stroke="currentColor" x1="0.0204" y1="0" x2="6.1031" y2="0" />
</g>
<g transform="translate(1.7080, 1.2400)">
<polygon stroke-linejoin="round" stroke-linecap="round" stroke-width="0.0080" fill="currentColor" stroke="currentColor" points="4.8667 -0.2360 4.8667 0.2360 0.0040 0.2360 0.0040 -0.2360" />
</g>
<g transform="translate(1.7080, 2.0204)">
<polygon stroke-linejoin="round" stroke-linecap="round" stroke-width="0.0080" fill="currentColor" stroke="currentColor" points="4.8667 -0.2360 4.8667 0.2360 0.0040 0.2360 0.0040 -0.2360" />
</g>
<g transform="translate(0.4552, 7.0204)">
<path transform="scale(0.0040, -0.0040)" d="M0 -49c0 91 119 184 221 184c61 0 106 -34 106 -86c0 -87 -114 -184 -224 -184c-65 0 -103 37 -103 86z" fill="currentColor" />
</g>
<g transform="translate(1.7346, 4.0204)">
<rect x="-0.0266" y="-2.7804" width="0.0531" height="5.5838" ry="0.0040" fill="currentColor" />
</g>
<g transform="translate(2.0611, 4.0204)">
<path transform="scale(0.0040, -0.0040)" d="M0 -49c0 91 119 184 221 184c61 0 106 -34 106 -86c0 -87 -114 -184 -224 -184c-65 0 -103 37 -103 86z" fill="currentColor" />
</g>
<g transform="translate(3.3404, 4.0204)">
<rect x="-0.0266" y="-2.7804" width="0.0531" height="2.5838" ry="0.0040" fill="currentColor" />
</g>
<g transform="translate(3.6670, 4.5204)">
<path transform="scale(0.0040, -0.0040)" d="M0 -49c0 91 119 184 221 184c61 0 106 -34 106 -86c0 -87 -114 -184 -224 -184c-65 0 -103 37 -103 86z" fill="currentColor" />
</g>
<g transform="translate(4.9463, 4.0204)">
<rect x="-0.0266" y="-2.7804" width="0.0531" height="3.0838" ry="0.0040" fill="currentColor" />
</g>
<g transform="translate(5.2729, 5.0204)">
<path transform="scale(0.0040, -0.0040)" d="M0 -49c0 91 119 184 221 184c61 0 106 -34 106 -86c0 -87 -114 -184 -224 -184c-65 0 -103 37 -103 86z" fill="currentColor" />
</g>
<g transform="translate(6.5522, 4.0204)">
<rect x="-0.0266" y="-2.7804" width="0.0531" height="3.5838" ry="0.0040" fill="currentColor" />
</g>
</g></svg>