<svg xmlns="http://www.w3.org/2000/svg" version="1.2" width="157.50mm" height="222.00mm" viewBox="0.0000 -0.0000 8.9627 12.6330">
<style type="text/css">

tspan { white-space: pre; }

</style>
<style type="text/css">

tspan { white-space: pre; }

</style>
<g transform="translate(0,-0.8376)"><g transform="translate(0.4552, 7.7207)">
<line stroke-linejoin="round" stroke-linecap="round" stroke-width="0.0409" stroke="currentColor" x1="0.0204" y1="0" x2="5.0442" y2="0" />
</g>
<g transform="translate(0.4552, 6.7207)">
<line stroke-linejoin="round" stroke-linecap="round" stroke-width="0.0409" stroke="currentColor" x1="0.0204" y1="0" x2="5.0442" y2="0" />
</g>
<g transform="translate(0.4552, 5.7207)">
<line stroke-linejoin="round" stroke-linecap="round" stroke-width="0.0409" stroke="currentColor" x1="0.0204" y1="0" x2="5.0442" y2="0" />
</g>
<g transform="translate(0.4552, 4.7207)">
<line stroke-linejoin="round" stroke-linecap="round" stroke-width="0.0409" stroke="currentColor" x1="0.0204" y1="0" x2="5.0442" y2="0" />
</g>
<g transform="translate(0.4552, 3.7207)">
<line stroke-linejoin="round" stroke-linecap="round" stroke-width="0.0409" stroke="currentColor" x1="0.0204" y1="0" x2="5.0442" y2="0" />
</g>
<g transform="translate(2.3013, 2.9402)">
<polygon stroke-linejoin="round" stroke-linecap="round" stroke-width="0.0080" fill="currentColor" stroke="currentColor" points="2.0132 -0.2360 2.0132 0.2360 0.0040 0.2360 0.0040 -0.2360" />
</g>
<g transform="translate(2.8728, 2.1800)">
<text font-family="serif" font-style="italic" font-size="1.7461" text-anchor="start" fill="currentColor">
<tspan>3</tspan>
</text>
</g>
<g transform="translate(1.0485, 6.7207)">
<path transform="scale(0.0040, -0.0040)" d="M0 -49c0 91 119 184 221 184c61 0 106 -34 106 -86c0 -87 -114 -184 -224 -184c-65 0 -103 37 -103 86z" fill="currentColor" />
</g>
<g transform="translate(2.3278, 5.7207)">
<rect x="-0.0266" y="-2.7804" width="0.0531" height="3.5838" ry="0.0040" fill="currentColor" />
</g>
<g transform="translate(2.6544, 5.7207)">
<path transform="scale(0.0040, -0.0040)" d="M0 -49c0 91 119 184 221 184c61 0 106 -34 106 -86c0 -87 -114 -184 -224 -184c-65 0 -103 37 -103 86z" fill="currentColor" />
</g>
<g transform="translate(3.9337, 5.7207)">
<rect x="-0.0266" y="-2.7804" width="0.0531" height="2.5838" ry="0.0040" fill="currentColor" />
</g>
<g transform="translate(3.0126, 8.2207)">
<path transform="scale(0.0040, -0.0040)" d="M0 -49c0 91 119 184 221 184c61 0 106 -34 106 -86c0 -87 -114 -184 -224 -184c-65 0 -103 37 -103 86z" fill="currentColor" />
</g>
<g transform="translate(4.2919, 5.7207)">
<rect x="-0.0266" y="-2.7804" width="0.0531" height="5.0838" ry="0.0040" fill="currentColor" />
</g>
</g></svg>